<?xml version="1.0" encoding="iso-8859-1"?>
<!-- Generator: Adobe Illustrator 19.0.0, SVG Export Plug-In . SVG Version: 6.00 Build 0)  -->
<svg version="1.1" id="Layer_1" xmlns="http://www.w3.org/2000/svg" xmlns:xlink="http://www.w3.org/1999/xlink" x="0px" y="0px"
	 viewBox="0 0 488.8 488.8" style="enable-background:new 0 0 488.8 488.8;" xml:space="preserve">
<g>
	<g>
		<path style="fill:#2C2F33;" d="M488.8,383V9.9c0-5.5-4.4-9.9-9.9-9.9H105.8c-5.5,0-9.9,4.4-9.9,9.9V383c0,5.5,4.4,9.9,9.9,9.9
			h373.1C484.4,392.9,488.8,388.5,488.8,383z M469,373.1H115.7V19.8H469V373.1L469,373.1z"/>
		<path style="fill:#2C2F33;" d="M9.9,488.8H383c5.5,0,9.9-4.4,9.9-9.9s-4.4-9.9-9.9-9.9H19.8V105.8c0-5.5-4.4-9.9-9.9-9.9
			S0,100.3,0,105.8v373.1C0,484.4,4.4,488.8,9.9,488.8z"/>
		<path style="fill:#3C92CA;" d="M211.8,206.3h70.7V277c0,5.5,4.4,9.9,9.9,9.9s9.9-4.4,9.9-9.9v-70.7H373c5.5,0,9.9-4.4,9.9-9.9
			s-4.4-9.9-9.9-9.9h-70.7v-70.7c0-5.5-4.4-9.9-9.9-9.9s-9.9,4.4-9.9,9.9v70.7h-70.7c-5.5,0-9.9,4.4-9.9,9.9
			S206.3,206.3,211.8,206.3z"/>
	</g>
</g>
<g>
</g>
<g>
</g>
<g>
</g>
<g>
</g>
<g>
</g>
<g>
</g>
<g>
</g>
<g>
</g>
<g>
</g>
<g>
</g>
<g>
</g>
<g>
</g>
<g>
</g>
<g>
</g>
<g>
</g>
</svg>
